<svg width="117" height="22" viewBox="0 0 117 22" fill="none" xmlns="http://www.w3.org/2000/svg">
<g clip-path="url(#clip0_5_155)">
<path d="M11.4127 0L14.1068 8.2918H22.8254L15.7719 13.4164L18.4661 21.7082L11.4127 16.5836L4.35925 21.7082L7.05342 13.4164L0 8.2918H8.71851L11.4127 0Z" fill="#F5D008"/>
<path d="M35.4127 0L38.1068 8.2918H46.8254L39.7719 13.4164L42.4661 21.7082L35.4127 16.5836L28.3593 21.7082L31.0534 13.4164L24 8.2918H32.7185L35.4127 0Z" fill="#F5D008"/>
<path d="M59.4127 0L62.1068 8.2918H70.8254L63.7719 13.4164L66.4661 21.7082L59.4127 16.5836L52.3593 21.7082L55.0534 13.4164L48 8.2918H56.7185L59.4127 0Z" fill="#F5D008"/>
<path d="M83.4127 0L86.1068 8.2918H94.8254L87.7719 13.4164L90.4661 21.7082L83.4127 16.5836L76.3593 21.7082L79.0534 13.4164L72 8.2918H80.7185L83.4127 0Z" fill="#F5D008"/>
<path d="M107.413 0L110.107 8.2918H118.825L111.772 13.4164L114.466 21.7082L107.413 16.5836L100.359 21.7082L103.053 13.4164L96 8.2918H104.719L107.413 0Z" fill="#F5D008"/>
</g>
<defs>
<clipPath id="clip0_5_155">
<rect width="117" height="22" fill="white"/>
</clipPath>
</defs>
</svg>
