<svg width="20" height="20" viewBox="0 0 20 20" fill="none" xmlns="http://www.w3.org/2000/svg">
<g clip-path="url(#clip0_5_139)">
<path d="M16.97 10.5892C17.1262 10.4329 17.214 10.221 17.214 10C17.214 9.77903 17.1262 9.56711 16.97 9.41083L12.2558 4.69667C12.179 4.61708 12.087 4.55359 11.9853 4.50992C11.8837 4.46624 11.7743 4.44325 11.6637 4.44229C11.553 4.44133 11.4433 4.46242 11.3409 4.50432C11.2385 4.54622 11.1454 4.60809 11.0672 4.68634C10.9889 4.76458 10.9271 4.85763 10.8851 4.96004C10.8432 5.06245 10.8222 5.17219 10.8231 5.28284C10.8241 5.39348 10.8471 5.50283 10.8907 5.6045C10.9344 5.70617 10.9979 5.79813 11.0775 5.875L14.3692 9.16667L3.33333 9.16667C3.11232 9.16667 2.90036 9.25446 2.74408 9.41074C2.5878 9.56703 2.5 9.77899 2.5 10C2.5 10.221 2.5878 10.433 2.74408 10.5893C2.90036 10.7455 3.11232 10.8333 3.33333 10.8333L14.3692 10.8333L11.0775 14.125C10.9257 14.2822 10.8417 14.4927 10.8436 14.7112C10.8455 14.9297 10.9331 15.1387 11.0877 15.2932C11.2422 15.4477 11.4512 15.5353 11.6697 15.5372C11.8882 15.5391 12.0987 15.4551 12.2558 15.3033L16.97 10.5892Z" fill="#FEFEFE"/>
</g>
<defs>
<clipPath id="clip0_5_139">
<rect width="20" height="20" fill="white" transform="translate(20) rotate(90)"/>
</clipPath>
</defs>
</svg>
